<svg width="322" height="320" xmlns="http://www.w3.org/2000/svg" xmlns:xlink="http://www.w3.org/1999/xlink" xml:space="preserve" overflow="hidden"><defs><clipPath id="clip0"><rect x="424" y="1856" width="322" height="320"/></clipPath></defs><g clip-path="url(#clip0)" transform="translate(-424 -1856)"><path d="M424 1900.44C424 1875.9 443.897 1856 468.441 1856L701.558 1856C726.103 1856 746 1875.9 746 1900.44L746 2131.56C746 2156.1 726.103 2176 701.558 2176L468.441 2176C443.897 2176 424 2156.1 424 2131.56Z" fill="#262626" fill-rule="evenodd"/><path d="M509 1951.09C509 1947.17 512.173 1944 516.087 1944L656.914 1944C660.827 1944 664 1947.17 664 1951.09L664 2092.91C664 2096.83 660.827 2100 656.914 2100L516.087 2100C512.173 2100 509 2096.83 509 2092.91Z" fill="#F2F2F2" fill-rule="evenodd"/><path d="M587 1941 587 2110.77" stroke="#262626" stroke-width="5.72917" stroke-miterlimit="8" fill="none" fill-rule="evenodd"/><path d="M505.5 2022.5 688.822 2022.57" stroke="#262626" stroke-width="4.58333" stroke-miterlimit="8" fill="none" fill-rule="evenodd"/></g></svg>