<svg width="322" height="320" xmlns="http://www.w3.org/2000/svg" xmlns:xlink="http://www.w3.org/1999/xlink" xml:space="preserve" overflow="hidden"><defs><clipPath id="clip0"><rect x="424" y="1376" width="322" height="320"/></clipPath></defs><g clip-path="url(#clip0)" transform="translate(-424 -1376)"><path d="M424 1420.44C424 1395.9 443.897 1376 468.441 1376L701.558 1376C726.103 1376 746 1395.9 746 1420.44L746 1651.56C746 1676.1 726.103 1696 701.558 1696L468.441 1696C443.897 1696 424 1676.1 424 1651.56Z" fill="#F2F2F2" fill-rule="evenodd"/><path d="M509 1471.09C509 1467.17 512.173 1464 516.087 1464L656.914 1464C660.827 1464 664 1467.17 664 1471.09L664 1612.91C664 1616.83 660.827 1620 656.914 1620L516.087 1620C512.173 1620 509 1616.83 509 1612.91Z" fill="#262626" fill-rule="evenodd"/><path d="M587 1460 587 1629.77" stroke="#F2F2F2" stroke-width="5.72917" stroke-miterlimit="8" fill="none" fill-rule="evenodd"/><path d="M505.5 1542.5 688.822 1542.57" stroke="#F2F2F2" stroke-width="4.58333" stroke-miterlimit="8" fill="none" fill-rule="evenodd"/></g></svg>